<svg width="512" height="512" viewBox="0 0 512 512" fill="none" xmlns="http://www.w3.org/2000/svg">
  <rect width="512" height="512" rx="110" fill="#B05040"/>
  <!-- Row 1 -->
  <rect x="46" y="46" width="120" height="120" rx="32" fill="#FDFAF5" fill-opacity="0.9"/>
  <rect x="196" y="46" width="120" height="120" rx="32" fill="#FDFAF5" fill-opacity="0.9"/>
  <rect x="346" y="46" width="120" height="120" rx="32" fill="#FDFAF5" fill-opacity="0.9"/>
  <!-- Row 2 -->
  <rect x="46" y="196" width="120" height="120" rx="32" fill="#2E5A40"/>
  <path d="M78 226C78 221.582 81.5817 218 86 218H126C130.418 218 134 221.582 134 226V294L106 276L78 294V226Z" fill="#FDFAF5"/>
  <rect x="196" y="196" width="120" height="120" rx="32" fill="#FDFAF5" fill-opacity="0.9"/>
  <rect x="346" y="196" width="120" height="120" rx="32" fill="#FDFAF5" fill-opacity="0.9"/>
  <!-- Row 3 -->
  <rect x="46" y="346" width="120" height="120" rx="32" fill="#FDFAF5" fill-opacity="0.9"/>
  <rect x="196" y="346" width="120" height="120" rx="32" fill="#FDFAF5" fill-opacity="0.9"/>
  <rect x="346" y="346" width="120" height="120" rx="32" fill="#FDFAF5" fill-opacity="0.9"/>
</svg>
